<svg
      xmlns="http://www.w3.org/2000/svg"
      x="0px"
      y="0px"
      width="48"
      height="48"
      viewBox="0 0 172 172"
      style="fill: #000000"
    >
      <defs>
        <radialGradient
          cx="86"
          cy="-888.66667"
          r="64.5"
          fx="85.65958"
          fy="-916.29775"
          gradientUnits="userSpaceOnUse"
          id="color-1_SnlxFjy7u-4t_gr1"
        >
          <stop offset="0" stop-color="#ecf0f1"></stop>
          <stop offset="0.629" stop-color="#7f7e8a"></stop>
          <stop offset="0.728" stop-color="#7a7985"></stop>
          <stop offset="0.85" stop-color="#6a6977"></stop>
          <stop offset="0.986" stop-color="#515061"></stop>
          <stop offset="0.999" stop-color="#4e4d5e"></stop>
        </radialGradient>
        <radialGradient
          cx="86.6665"
          cy="86.34042"
          r="64.371"
          fx="86.27233"
          fy="62.12425"
          gradientUnits="userSpaceOnUse"
          id="color-2_SnlxFjy7u-4t_gr2"
        >
          <stop offset="0.001" stop-color="#9493a1"></stop>
          <stop offset="0.628" stop-color="#74737d"></stop>
          <stop offset="0.716" stop-color="#6f6e78"></stop>
          <stop offset="0.825" stop-color="#5f5e69"></stop>
          <stop offset="0.946" stop-color="#464550"></stop>
          <stop offset="1" stop-color="#383742"></stop>
        </radialGradient>
        <radialGradient
          cx="85.96775"
          cy="-888.66667"
          r="64.51792"
          fx="85.62733"
          fy="-916.30492"
          gradientUnits="userSpaceOnUse"
          id="color-3_SnlxFjy7u-4t_gr3"
        >
          <stop offset="0" stop-color="#F8F8F8"></stop>
          <stop offset="0.629" stop-color="#F8F8F8"></stop>
          <stop offset="0.701" stop-color="#F8F8F8"></stop>
          <stop offset="0.79" stop-color="#F8F8F8"></stop>
          <stop offset="0.89" stop-color="#F8F8F8"></stop>
          <stop offset="0.995" stop-color="#F8F8F8"></stop>
          <stop offset="1" stop-color="#F8F8F8"></stop>
        </radialGradient>
        <radialGradient
          cx="86.0645"
          cy="85.82083"
          r="64.37458"
          fx="85.66675"
          fy="61.60467"
          gradientUnits="userSpaceOnUse"
          id="color-4_SnlxFjy7u-4t_gr4"
        >
          <stop offset="0" stop-color="#797770"></stop>
          <stop offset="0.63" stop-color="#797770"></stop>
          <stop offset="0.703" stop-color="#797770"></stop>
          <stop offset="0.795" stop-color="#797770"></stop>
          <stop offset="0.896" stop-color="#797770"></stop>
          <stop offset="1" stop-color="#797770"></stop>
        </radialGradient>
      </defs>
      <g
        fill="none"
        fill-rule="nonzero"
        stroke="none"
        stroke-width="1"
        stroke-linecap="butt"
        stroke-linejoin="miter"
        stroke-miterlimit="10"
        stroke-dasharray=""
        stroke-dashoffset="0"
        font-family="none"
        font-weight="none"
        font-size="none"
        text-anchor="none"
        style="mix-blend-mode: normal"
      >
        <path d="M0,172v-172h172v172z" fill="none"></path>
        <g>
          <circle
            cx="24"
            cy="24"
            transform="scale(3.58333,3.58333)"
            r="18"
            fill="url(#color-1_SnlxFjy7u-4t_gr1)"
          ></circle>
          <path
            d="M127.66342,121.87275c-1.77017,2.8595 -4.42183,5.47533 -7.75792,5.934c-3.3325,0.45508 -7.12367,-2.16433 -6.85133,-5.51833c-2.07475,0.11108 -4.22117,0.24367 -6.05942,1.21475c-1.83467,0.97108 -3.27158,3.0315 -2.83442,5.06325c0.15767,0.73458 0.54467,1.47633 0.34042,2.19658c-0.26158,0.91375 -1.40108,1.45483 -1.4405,2.40442c-0.07525,1.73075 3.15333,1.64475 3.65142,3.30383c0.35117,1.17892 -0.93167,2.14642 -2.02458,2.709c-4.88408,2.51192 -9.94733,5.074 -15.42983,5.39292c-2.28617,0.13258 -4.59383,-0.129 -6.86925,0.15408c-3.55467,0.44075 -6.79758,2.18942 -10.24117,3.17483c-0.72742,0.20783 -1.462,0.3655 -2.19658,0.50525c-13.17233,-3.37908 -24.72858,-10.76433 -33.239,-20.84783c-0.29742,-1.23267 -0.57692,-2.46892 -0.8385,-3.69083c0,0 0,0.0645 0.45508,-0.53392c0.45508,-0.59842 1.24342,-0.817 1.98517,-0.94242c2.26467,-0.38342 4.61533,-0.24367 6.8155,0.4085c1.53725,0.45508 3.02792,1.161 4.62967,1.24342c1.60175,0.08242 3.41133,-0.69875 3.84492,-2.24317c0.89225,-3.19633 -4.41108,-5.20658 -4.32867,-8.52117c-1.548,1.94217 -4.91633,2.1715 -6.50733,0.26517c-1.591,-1.90633 -0.46942,-5.42517 1.98517,-5.81217c-3.49017,-2.00667 -5.18508,-6.3425 -4.86617,-10.35583c0.31892,-4.01333 2.3435,-7.71133 4.84467,-10.86467c1.80242,-2.27542 4.02408,-4.429 6.84417,-5.117c2.01742,-0.4945 4.16025,-0.18275 6.13108,0.47658c4.79092,1.60533 8.65375,5.12775 12.3625,8.56058c1.47275,1.36167 2.97775,2.76633 3.86642,4.56517c1.60892,3.25367 0.92092,7.10217 0.60917,10.71775c-0.31175,3.61558 0.043,7.79375 2.92758,9.9975c0.50883,0.39058 1.11083,0.70592 1.75225,0.70592c0.60558,0 1.17533,-0.2795 1.69133,-0.59842c3.83058,-2.37933 5.62583,-7.58233 4.08142,-11.82142c-1.59458,-4.37525 -6.13108,-7.34942 -7.10933,-11.90025c-0.10033,-0.46225 -0.15408,-0.9675 0.07525,-1.37958c0.24725,-0.45508 0.774,-0.68083 1.27925,-0.79192c3.40058,-0.75608 7.71133,2.00667 10.05125,-0.57333c0.89942,-0.99258 1.05708,-2.43667 1.66983,-3.62633c0.61275,-1.18967 2.24675,-2.13567 3.23933,-1.23625c0.25083,0.22575 0.41208,0.54108 0.51242,0.86358c0.8815,2.83442 -2.43667,6.40342 -0.3655,8.53192c0.46225,0.47658 1.10725,0.72383 1.66625,1.08217c2.00667,1.28642 2.74483,4.21042 1.58742,6.29592c2.75558,-0.69517 3.63708,-4.61892 6.36042,-5.44308c0.67008,-0.20425 1.39033,-0.18992 2.04967,-0.43c1.51575,-0.54825 2.29692,-2.54775 1.55875,-3.9775c1.98517,-1.14308 3.87,2.01025 6.14542,2.27542c1.634,0.18992 3.01358,-1.15742 4.601,-1.59458c2.41875,-0.6665 5.19942,1.27925 5.40367,3.78042c0.11467,1.419 -0.22575,3.32892 1.10008,3.85208c0.49092,0.1935 1.06067,0.07883 1.55517,0.26158c1.53725,0.56258 0.90658,2.91683 -0.18992,4.13158c-1.29358,1.42975 -2.87383,2.6015 -4.6225,3.4185c-1.31508,0.61275 -2.9885,1.42258 -2.881,2.87025c0.03583,0.50167 0.30817,0.97108 0.27592,1.47275c-0.09675,1.50858 -2.74125,2.365 -2.08908,3.72667c0.989,1.30075 3.01,0.01792 4.02767,-1.26133c1.01767,-1.27925 2.94192,-2.64808 4.02767,-1.42258c-0.87433,0.89583 -0.10392,2.4295 0.88508,3.19275c0.989,0.76325 2.27183,1.36167 2.65883,2.55133c0.344,1.07142 -0.20425,2.23242 -0.80625,3.2035zM53.55292,64.85475c1.47992,2.65883 -1.32583,6.05225 -0.31892,8.9225c0.72742,2.06758 3.10317,2.9885 5.23883,3.48658c1.66983,0.387 3.36117,0.67725 5.06683,0.86c1.00692,0.1075 2.03892,0.17917 3.02792,-0.043c2.68392,-0.602 4.429,-3.15333 5.69033,-5.59717c0.69517,-1.34375 1.34017,-2.752 1.48708,-4.257c0.15767,-1.59817 -0.25083,-3.19275 -0.7095,-4.73358c-0.74892,-2.50833 -1.7845,-5.16 -4.00258,-6.54675c-1.98517,-1.23983 -4.859,-1.75225 -6.7725,-0.40492c-4.2785,3.01717 -7.58233,3.49733 -8.46742,3.95958c-0.88508,0.46225 -1.58025,1.45125 -1.36525,2.4295c0.15767,0.731 0.75967,1.27208 1.12517,1.92425zM70.37308,47.44692c-0.61275,1.05708 -0.15767,2.4295 0.559,3.41492c0.71667,0.989 1.68775,1.80242 2.25033,2.88458c1.13592,2.18583 0.5805,5.08117 1.83108,7.095c2.80575,4.51142 6.93375,6.54317 10.664,4.97008c4.07067,-1.71642 5.6115,-6.87642 9.38475,-9.17692c0.68083,-0.41567 1.462,-0.76683 1.85975,-1.45483c0.78833,-1.36525 -0.45508,-3.09242 -1.892,-3.74458c-1.4405,-0.64858 -3.11033,-0.73458 -4.46125,-1.55158c-0.43358,-0.26158 -0.83492,-0.61275 -1.02842,-1.07858c-0.516,-1.22908 0.58767,-2.63017 0.2795,-3.92733c-0.37267,-1.55875 -2.42592,-1.95292 -4.01692,-1.73075c-1.58742,0.22217 -3.35758,0.69875 -4.68342,-0.20425c-0.96392,-0.65933 -1.59458,-1.99592 -2.76275,-2.00308c-1.72,-0.00717 -1.8705,2.59075 -3.05658,3.83417c-1.31508,1.38317 -3.97033,1.02125 -4.92708,2.67317zM63.554,36.86892c1.47633,0.92808 3.311,1.1825 5.03817,0.95317c1.73075,-0.22575 3.36833,-0.90658 4.90917,-1.72717c1.11442,-0.59483 2.21808,-1.29717 2.95267,-2.32917c0.73458,-1.032 1.02483,-2.45817 0.43717,-3.57975c-0.72383,-1.37242 -2.49758,-1.849 -4.03842,-1.66983c-0.89225,0.10392 -2.021,0.27233 -2.47967,-0.49808c-0.09317,-0.15408 -0.14333,-0.33683 -0.2795,-0.45508c-0.23292,-0.20783 -0.59125,-0.13975 -0.88508,-0.04658c-3.01717,0.97108 -5.12058,3.07808 -5.87667,4.01692c-0.91375,1.13233 -1.68417,2.67317 -1.07142,3.99183c0.26517,0.56975 0.75967,1.00692 1.29358,1.34375zM81.485,38.03708c1.27208,0.75608 2.84875,-0.42642 4.3215,-0.30458c1.8275,0.1505 2.85233,2.15717 4.42183,3.10675c1.36167,0.82417 3.2035,0.76683 4.51142,-0.13975c0.55183,-0.38342 1.25058,-0.92092 1.80242,-0.5375c0.3655,0.258 0.39775,0.78475 0.64142,1.16458c0.46225,0.72383 1.505,0.71308 2.36142,0.61633c0.25442,-0.02867 0.52675,-0.0645 0.72742,-0.22575c0.41925,-0.344 0.28308,-0.99975 0.32608,-1.54083c0.16842,-2.06042 3.19992,-2.78425 3.68367,-4.7945c0.08242,-0.34042 0.09675,-0.72742 0.35117,-0.9675c0.49808,-0.46942 1.27925,0.0645 1.73433,0.57333c0.48733,0.54467 0.989,1.0965 1.62683,1.45125c0.63783,0.35475 1.45483,0.47658 2.09625,0.13258c0.645,-0.34758 0.98542,-1.25417 0.57692,-1.85975c-0.36908,-0.55183 -1.19683,-0.71667 -1.4405,-1.33658c-0.11825,-0.30458 -0.0645,-0.65217 -0.16842,-0.96392c-0.15767,-0.46942 -0.64142,-0.74533 -1.10008,-0.93167c-3.483,-1.41183 -7.76508,-0.21142 -10.96858,-2.18225c-0.77758,-0.47658 -1.47275,-1.075 -2.2575,-1.54083c-4.05275,-2.42233 -7.05917,1.2685 -7.65042,2.07117c-0.20783,0.28308 -0.2365,0.65217 -0.37625,0.97467c-0.1935,0.44433 -0.58767,0.76325 -0.96033,1.07142c-1.64833,1.37958 -3.12467,2.96342 -4.39317,4.69775c-0.1935,0.26517 -0.39058,0.57333 -0.32967,0.89583c0.05017,0.25083 0.24367,0.44433 0.46225,0.56975z"
            fill="url(#color-2_SnlxFjy7u-4t_gr2)"
          ></path>
          <path
            d="M150.5,86c0,35.62192 -28.87808,64.5 -64.5,64.5c0,0 -28.66667,-12.78892 -28.66667,-64.5c0,-51.71108 28.66667,-64.5 28.66667,-64.5c35.62192,0 64.5,28.87808 64.5,64.5z"
            fill="url(#color-3_SnlxFjy7u-4t_gr3)"
          ></path>
          <path
            d="M89.54033,48.80858c0.1935,0.46583 0.59842,0.817 1.02842,1.07858c1.35092,0.817 3.02075,0.903 4.46125,1.55158c1.43692,0.64858 2.68392,2.37575 1.892,3.74458c-0.39775,0.69158 -1.1825,1.03917 -1.85975,1.45483c-3.77325,2.3005 -5.31408,7.4605 -9.38475,9.17692c-3.72667,1.57308 -7.85825,-0.45867 -10.664,-4.97008c-1.25058,-2.01383 -0.69517,-4.90917 -1.83108,-7.095c-0.56258,-1.08575 -1.53008,-1.89558 -2.25033,-2.88458c-0.71667,-0.989 -1.17175,-2.35783 -0.559,-3.41492c0.95675,-1.65192 3.612,-1.29 4.92708,-2.66958c1.18608,-1.247 1.33658,-3.84133 3.05658,-3.83417c1.16458,0.00358 1.79883,1.34375 2.76275,2.00308c1.32225,0.90658 3.09242,0.42642 4.68342,0.20425c1.58742,-0.22217 3.64425,0.16842 4.01692,1.73075c0.30817,1.29 -0.7955,2.69108 -0.2795,3.92375zM125.80367,116.10358c-0.989,-0.76325 -1.75942,-2.29692 -0.88508,-3.19275c-1.08217,-1.2255 -3.01,0.14333 -4.02767,1.42258c-1.01767,1.27925 -3.03867,2.56567 -4.02767,1.26133c-0.65217,-1.36167 1.99233,-2.21808 2.08908,-3.72667c0.03225,-0.50167 -0.2365,-0.97108 -0.27592,-1.47275c-0.1075,-1.44767 1.56592,-2.25392 2.881,-2.87025c1.74867,-0.817 3.32892,-1.98875 4.6225,-3.4185c1.0965,-1.21475 1.72358,-3.569 0.18992,-4.13158c-0.4945,-0.18275 -1.06425,-0.06808 -1.55517,-0.26158c-1.32583,-0.51958 -0.98542,-2.43308 -1.10008,-3.85208c-0.20067,-2.50117 -2.98492,-4.44692 -5.40367,-3.78042c-1.58383,0.43717 -2.967,1.7845 -4.601,1.59458c-2.27542,-0.26517 -4.16025,-3.41492 -6.14542,-2.27542c0.74175,1.42975 -0.043,3.42925 -1.55875,3.9775c-0.65575,0.2365 -1.37958,0.22575 -2.04967,0.43c-2.72333,0.82417 -3.60125,4.74433 -6.36042,5.44308c1.15742,-2.08192 0.41925,-5.0095 -1.58742,-6.29592c-0.559,-0.35833 -1.20042,-0.60558 -1.66625,-1.08217c-2.07117,-2.12492 1.24342,-5.69392 0.3655,-8.53192c-0.10033,-0.3225 -0.26158,-0.63425 -0.51242,-0.86358c-0.99258,-0.89942 -2.62658,0.04658 -3.23933,1.23625c-0.61275,1.18967 -0.77042,2.63375 -1.66983,3.62633c-2.33992,2.58 -6.65067,-0.18275 -10.05125,0.57333c-0.50525,0.11108 -1.02842,0.34042 -1.27925,0.79192c-0.22575,0.41208 -0.172,0.92092 -0.07525,1.37958c0.97825,4.55083 5.51475,7.525 7.10933,11.90025c1.54442,4.2355 -0.25083,9.4385 -4.08142,11.82142c-0.516,0.31892 -1.08575,0.59842 -1.69133,0.59842c-0.64142,0 -1.24342,-0.31892 -1.75225,-0.70592c-2.88458,-2.20375 -3.23933,-6.38192 -2.92758,-9.9975c0.31175,-3.61558 0.99975,-7.46408 -0.60917,-10.71775c-0.88867,-1.79883 -2.39367,-3.2035 -3.86642,-4.56517c-3.70875,-3.42925 -7.57158,-6.95525 -12.3625,-8.56058c-0.09675,-0.03225 -0.20067,-0.05375 -0.29742,-0.08242c-0.03942,1.39033 -0.06808,2.78783 -0.06808,4.22475c0,34.9375 13.07917,52.0945 21.56808,59.55858c1.14308,-0.3655 2.29333,-0.68442 3.48658,-0.83133c2.27542,-0.28308 4.58308,-0.0215 6.86925,-0.15408c5.4825,-0.31892 10.54575,-2.881 15.42983,-5.39292c1.09292,-0.56258 2.37575,-1.53008 2.02458,-2.709c-0.4945,-1.66267 -3.72308,-1.57308 -3.65142,-3.30383c0.03942,-0.94958 1.17892,-1.49067 1.4405,-2.40442c0.20783,-0.72383 -0.17917,-1.462 -0.34042,-2.19658c-0.43717,-2.03175 0.99975,-4.09217 2.83442,-5.06325c1.83467,-0.97108 3.98467,-1.10367 6.05942,-1.21475c-0.27233,3.354 3.51525,5.97342 6.85133,5.51833c3.3325,-0.45508 5.98417,-3.07092 7.75792,-5.934c0.602,-0.97108 1.15025,-2.13208 0.7955,-3.22142c-0.387,-1.18608 -1.66625,-1.7845 -2.65525,-2.54775zM73.50133,36.09492c1.11442,-0.59483 2.21808,-1.29717 2.95267,-2.32917c0.73458,-1.032 1.02483,-2.45817 0.43717,-3.57975c-0.21142,-0.40133 -0.53033,-0.70592 -0.88867,-0.96033c-2.12133,2.20733 -4.37525,4.97367 -6.56108,8.38142c1.41183,-0.30817 2.77708,-0.82775 4.05992,-1.51217zM99.53425,41.94292c0.25442,-0.02867 0.52675,-0.0645 0.72742,-0.22575c0.41925,-0.344 0.28308,-0.99975 0.32608,-1.54083c0.16842,-2.06042 3.19992,-2.78425 3.68367,-4.7945c0.08242,-0.34042 0.09675,-0.72742 0.35117,-0.9675c0.49808,-0.46942 1.27925,0.0645 1.73433,0.57333c0.48733,0.54467 0.989,1.0965 1.62683,1.45125c0.63783,0.35475 1.45483,0.47658 2.09625,0.13258c0.645,-0.34758 0.98542,-1.25417 0.57692,-1.85975c-0.36908,-0.55183 -1.19683,-0.71667 -1.4405,-1.33658c-0.11825,-0.30458 -0.0645,-0.65217 -0.16842,-0.96392c-0.15767,-0.46942 -0.64142,-0.74533 -1.10008,-0.93167c-3.483,-1.41183 -7.76508,-0.21142 -10.96858,-2.18225c-0.77758,-0.47658 -1.47275,-1.075 -2.2575,-1.54083c-4.05275,-2.42233 -7.05917,1.2685 -7.65042,2.07117c-0.20783,0.28308 -0.2365,0.65217 -0.37625,0.97467c-0.1935,0.44433 -0.58767,0.76325 -0.96033,1.07142c-1.64833,1.37958 -3.12467,2.96342 -4.39317,4.69775c-0.1935,0.26517 -0.39058,0.57333 -0.32967,0.89583c0.04658,0.24725 0.24008,0.44075 0.45867,0.56617c1.27208,0.75608 2.84875,-0.42642 4.3215,-0.30458c1.8275,0.1505 2.85233,2.15717 4.42183,3.10675c1.36167,0.82417 3.2035,0.76683 4.51142,-0.13975c0.55183,-0.38342 1.25058,-0.92092 1.80242,-0.5375c0.3655,0.258 0.39775,0.78475 0.64142,1.16458c0.46942,0.72742 1.51217,0.71667 2.365,0.61992zM58.47283,77.26383c1.66983,0.387 3.36117,0.67725 5.06683,0.86c1.00692,0.1075 2.03892,0.17917 3.02792,-0.043c2.68392,-0.602 4.429,-3.15333 5.69033,-5.59717c0.69517,-1.34375 1.34017,-2.752 1.48708,-4.257c0.15767,-1.59817 -0.25083,-3.19275 -0.7095,-4.73358c-0.74892,-2.50833 -1.7845,-5.16 -4.00258,-6.54675c-1.98517,-1.23983 -4.859,-1.75225 -6.7725,-0.40492c-0.4945,0.34758 -0.97108,0.65575 -1.4405,0.94242c-1.53367,5.65808 -2.666,12.14033 -3.182,19.53992c0.28308,0.07883 0.559,0.17558 0.83492,0.24008z"
            fill="url(#color-4_SnlxFjy7u-4t_gr4)"
          ></path>
        </g>
      </g>
    </svg>